<svg width="123" height="112" viewBox="0 0 123 112" fill="none" xmlns="http://www.w3.org/2000/svg">
  <g opacity="0.5" clip-path="url(#clip0_542_17471)">
  <path d="M47.3112 0H49.0548C49.2058 0.0205933 49.3499 0.0549154 49.501 0.0617798C52.6517 0.212797 55.727 0.782544 58.6787 1.91517C62.4679 3.37043 65.6324 5.62883 67.8702 9.07477C67.9251 9.15714 68.0006 9.21892 68.0967 9.32189L68.5978 7.27629C68.7351 7.29688 68.8518 7.29688 68.9548 7.32434C71.625 8.07256 74.007 9.34248 75.9839 11.2988C78.613 13.9005 79.828 17.1061 79.9447 20.7649C79.9516 21.0669 80.0545 21.1973 80.3154 21.3072C81.1116 21.6573 81.9079 22.0142 82.6836 22.4055C90.3649 26.3182 96.5566 31.8921 101.259 39.1272C101.362 39.2851 101.588 39.4155 101.774 39.4567C102.364 39.5871 102.975 39.6421 103.565 39.7725C108.528 40.8571 112.709 43.3077 116.134 47.035C119.285 50.4673 121.31 54.4761 122.072 59.089C122.216 59.9539 122.291 60.8394 122.401 61.7112V63.7019C122.374 63.8803 122.339 64.0519 122.326 64.2304C122.133 67.0105 121.44 69.6602 120.102 72.0971C117.04 77.671 112.317 80.9247 106.057 81.9544C105.7 82.0162 105.46 82.1054 105.302 82.4967C102.323 89.7867 97.8128 95.9715 91.7584 100.996C84.0222 107.415 75.1327 111.032 65.1038 111.821C64.4036 111.876 63.7035 111.924 63.0033 111.979H60.0173C59.9074 111.959 59.8045 111.931 59.6946 111.924C56.4958 111.815 53.3313 111.396 50.2355 110.6C38.0511 107.476 28.537 100.598 21.652 90.0887C20.0732 87.6793 18.7689 85.1257 17.7049 82.4486C17.5814 82.1466 17.4166 82.0093 17.094 81.9612C16.4556 81.872 15.8035 81.769 15.1857 81.5974C7.3122 79.4077 2.56888 74.2799 0.955738 66.276C0.770398 65.4523 0.715483 64.5805 0.605652 63.7156V61.7249C0.63311 61.5602 0.660567 61.4023 0.681161 61.2375C0.811585 60.2559 0.887093 59.2537 1.08616 58.2858C2.21879 52.8492 4.98516 48.3805 9.20678 44.8178C12.687 41.8799 16.6959 40.0814 21.2264 39.4704C21.398 39.4499 21.5902 39.2851 21.6932 39.1341C23.7113 36.0451 26.0315 33.2032 28.688 30.6428C32.6831 26.8056 37.1999 23.7509 42.259 21.4994C43.1651 21.0944 44.0849 20.7306 45.0185 20.3462C44.9979 20.2706 45.0048 20.1951 44.9704 20.1402C43.0141 17.3464 41.0577 14.5594 39.0945 11.7656C39.1219 11.7588 39.2112 11.7176 39.3004 11.7038C40.8312 11.491 42.3551 11.2233 43.8927 11.0929C45.904 10.9213 47.9221 10.9831 49.9128 11.4018C51.272 11.6901 52.5625 12.15 53.7569 12.9738C53.7569 12.7953 53.7638 12.6786 53.7569 12.5619C53.6471 11.038 53.1872 9.61706 52.5419 8.24417C51.2033 5.4023 49.4117 2.84874 47.4828 0.391272C47.4004 0.281441 47.3661 0.137288 47.3112 0.00686442V0ZM93.1587 53.9681C92.8567 54.2839 92.5958 54.5928 92.3075 54.8605C91.4769 55.6362 90.5365 56.1716 89.3627 56.1922C89.1087 56.1922 88.9714 56.1235 88.8616 55.8764C87.6946 53.3023 86.0266 51.0851 83.9878 49.1356C83.7819 48.9365 83.576 48.8541 83.2945 48.861C79.5877 48.8678 75.881 48.861 72.181 48.861C67.4308 48.861 63.2504 45.7789 61.8501 41.2346C61.7746 40.9943 61.7265 40.8227 61.4039 40.8227C61.0813 40.8227 60.992 40.9669 60.9096 41.2346C59.5162 45.7789 55.3357 48.861 50.5787 48.861C46.9543 48.861 43.3367 48.861 39.7123 48.861C39.4309 48.861 39.2181 48.9365 39.019 49.1356C37.8246 50.2888 36.7331 51.5381 35.7996 52.9179C33.7196 56.0068 32.5115 59.3841 32.4772 63.1253C32.436 68.1157 32.4497 73.1061 32.4635 78.0966C32.4703 81.0757 33.2048 83.8901 34.5914 86.5261C36.589 90.3152 39.527 93.2258 43.1102 95.4979C48.5811 98.9644 54.615 100.502 61.0401 100.612C65.1724 100.681 69.2156 100.07 73.1352 98.7242C78.2561 96.96 82.7179 94.2074 86.157 89.9583C88.333 87.2674 89.8295 84.2402 90.2963 80.7874C90.4953 79.3047 90.4679 77.7877 90.5296 76.2844C90.5365 76.051 90.5983 75.9274 90.8111 75.8038C91.2779 75.543 91.7515 75.2684 92.1634 74.9252C94.1815 73.2777 95.3691 71.0948 96.1722 68.6648C96.1791 68.6374 96.1516 68.5893 96.1447 68.5481C94.3737 69.0081 92.6027 69.3787 90.7699 69.0424C90.8729 68.9669 90.9758 68.9257 91.0925 68.8914C92.843 68.4109 94.2845 67.4636 95.4034 66.0358C96.7969 64.2579 97.4696 62.1848 97.7716 59.9745C97.8334 59.5352 97.8471 59.089 97.8952 58.5741C97.2293 58.9723 96.6733 59.3224 96.0967 59.6381C95.5269 59.9539 94.9503 60.2559 94.3669 60.5236C93.7628 60.7982 93.1519 61.0453 92.5272 61.265C91.9231 61.4778 91.2985 61.6357 90.6807 61.8141C93.7971 59.9539 93.9893 56.4942 93.1862 53.9612L93.1587 53.9681ZM101.726 51.2773C101.787 51.8195 101.849 52.2863 101.89 52.7531C102.131 55.4714 102.172 58.1897 101.979 60.908C101.767 63.9764 101.259 66.9968 100.215 69.9004C99.0896 73.0238 97.4353 75.7901 94.7581 77.8494C94.4973 78.0554 94.4149 78.2613 94.408 78.5771C94.2982 82.984 92.9322 86.986 90.4747 90.6104C87.3514 95.2164 83.1229 98.5182 78.1325 100.873C72.387 103.584 66.3119 104.696 59.9829 104.47C54.2992 104.264 48.89 102.953 43.8172 100.358C39.5475 98.1681 35.8751 95.2439 33.0401 91.3449C30.0678 87.2537 28.5301 82.6889 28.5645 77.6092C28.5988 72.8247 28.5507 68.0402 28.5851 63.2557C28.5919 62.1436 28.7017 61.0179 28.8734 59.9196C29.5049 55.9451 31.2004 52.4305 33.6716 49.2728C33.7608 49.163 33.8363 49.0395 33.9668 48.8678H33.4313C29.4088 48.8678 25.3862 48.8747 21.3637 48.8541C20.9312 48.8541 20.7459 48.9845 20.5949 49.3827C19.0435 53.5974 18.1237 57.9495 17.8971 62.4319C17.6157 68.0265 18.3159 73.4974 20.183 78.783C24.1232 89.9514 31.3446 98.2917 41.8952 103.694C46.9337 106.275 52.3016 107.73 57.9442 108.197C62.2276 108.554 66.4767 108.3 70.6777 107.38C79.4093 105.465 86.8778 101.271 93.0832 94.8458C96.3095 91.5097 98.9111 87.7273 100.895 83.54C104.437 76.0578 105.776 68.1912 104.911 59.9539C104.519 56.254 103.648 52.6707 102.336 49.1905C102.24 48.9365 102.117 48.8678 101.856 48.8678C100.057 48.8816 98.259 48.8678 96.4605 48.8678C96.3575 48.8678 96.2477 48.8816 96.1036 48.8884C96.8037 50.6045 97.4833 52.2863 97.3048 54.229C98.8013 53.2267 100.236 52.2726 101.726 51.2704V51.2773ZM40.1585 39.9578C39.6299 38.7703 39.6848 37.569 39.8839 36.3746C40.8175 30.7114 45.753 26.7919 51.4573 27.2998C55.9123 27.698 58.9807 30.0936 60.6763 34.2123C61.0263 35.0703 61.1842 36.0039 61.4245 36.8757C61.4451 36.7796 61.4794 36.6354 61.5 36.4844C62.2619 31.2537 66.7238 27.3135 71.982 27.2312C76.5674 27.1557 80.6792 29.9014 82.2992 34.1848C82.9994 36.0314 83.3494 37.9397 82.6561 39.8892C82.6561 39.9029 82.6767 39.9372 82.6836 39.9441H97.4627C97.3803 39.8068 97.3254 39.7107 97.2636 39.6215C95.2936 36.8139 93.0283 34.2741 90.461 32.0019C86.4934 28.5011 82.0452 25.8034 77.1028 23.9088C76.842 23.8058 76.7321 23.6823 76.6772 23.394C76.4576 22.1858 76.2448 20.9708 75.9427 19.7833C75.4142 17.7102 74.5493 15.795 72.9704 14.278C72.387 13.7151 71.7554 13.2209 71.0209 12.8502C70.0187 15.5479 68.7831 17.3258 67.6299 17.772C66.2708 9.50036 59.3377 5.42976 54.9101 5.01103C57.601 9.34248 58.1501 13.9073 56.489 18.7811C53.4892 16.3922 50.1531 15.1841 46.2884 15.2528C48.0045 17.5317 49.041 19.9823 49.3911 22.7212C39.4652 25.7279 31.523 31.4322 25.4961 39.9578H40.1653H40.1585ZM35.3465 46.1495C40.4468 46.1495 45.5539 46.1495 50.6542 46.1495C51.1622 46.1495 51.677 46.1015 52.1781 46.0054C56.2967 45.1954 59.1386 41.3032 58.6238 37.013C58.1295 32.9081 54.1894 29.6612 50.0639 29.9769C45.5608 30.327 42.4375 34.0887 42.4992 38.0426C42.513 38.9007 43.1376 39.594 43.9957 39.7038C44.8606 39.8137 45.6912 39.2645 45.8834 38.4408C45.9521 38.1593 45.9452 37.8642 45.9795 37.5759C46.2541 34.7889 49.0273 32.8531 51.7388 33.5739C54.0383 34.1848 55.4936 36.3471 55.1916 38.6948C54.8895 40.9875 52.8989 42.7105 50.5375 42.7105C42.0187 42.7105 33.5 42.7105 24.9881 42.7105C23.2171 42.7105 21.4461 42.6899 19.6819 42.7242C19.2906 42.731 18.8582 42.8546 18.5218 43.0605C17.8971 43.4381 17.6706 44.2549 17.8903 44.9688C18.1168 45.6965 18.7689 46.1564 19.5995 46.1564C24.8508 46.1564 30.109 46.1564 35.3602 46.1564L35.3465 46.1495ZM87.372 46.1495C89.2391 46.1495 91.1063 46.1495 92.9734 46.1495C96.385 46.1495 99.8035 46.1495 103.215 46.1495C104.485 46.1495 105.309 44.9688 104.869 43.8019C104.595 43.0811 103.97 42.7036 103.05 42.7036C92.8224 42.7036 82.5944 42.7036 72.3595 42.7036C72.0849 42.7036 71.8035 42.6967 71.5358 42.6487C69.6961 42.3466 68.4193 41.317 67.8153 39.5665C67.1975 37.7749 67.5819 36.1343 68.9136 34.7958C70.2247 33.4847 71.8378 33.1071 73.6088 33.6563C75.5034 34.2466 76.7459 35.9421 76.8214 37.9465C76.8626 39.0037 77.6039 39.745 78.6061 39.7107C79.5946 39.6832 80.2673 38.935 80.2605 37.871C80.2605 33.0865 75.7505 29.3042 70.9592 30.0525C66.813 30.6977 63.7858 34.432 64.0879 38.53C64.4105 42.9027 67.8564 46.1495 72.181 46.1495C77.2401 46.1495 82.2992 46.1495 87.3583 46.1495H87.372ZM106.888 78.0966C107.004 78.0828 107.1 78.076 107.19 78.0554C110.306 77.2179 112.963 75.6254 115.036 73.1473C118.372 69.1522 119.395 64.505 118.454 59.4734C117.287 53.2062 113.738 48.5658 108.26 45.3738C108.137 45.2983 108 45.2366 107.917 45.2022C107.663 45.7789 107.478 46.3486 107.162 46.8428C106.846 47.3302 106.407 47.7352 106.023 48.1814C106.023 48.1814 106.023 48.1951 106.043 48.202C106.153 48.2638 106.263 48.3187 106.373 48.3805C112.242 51.7509 115.406 56.7001 114.905 63.592C114.61 67.642 112.599 70.8203 109.119 72.9482C108.267 73.4699 107.787 74.0054 107.643 74.9938C107.492 76.0372 107.162 77.0532 106.901 78.1172L106.888 78.0966ZM16.0918 78.124C15.7486 76.6344 15.4191 75.1998 15.0759 73.7651C15.0484 73.6553 14.918 73.5523 14.8013 73.4974C9.65297 70.8615 7.21609 65.3493 8.2183 59.7754C9.15186 54.5722 12.1036 50.8173 16.7165 48.3187C16.8194 48.2638 16.9155 48.202 17.0528 48.1196C16.03 47.3645 15.4122 46.4035 15.1788 45.2091C15.117 45.2091 15.0827 45.2022 15.0621 45.2091C14.9592 45.2572 14.8631 45.3052 14.767 45.3601C12.7763 46.4584 11.0053 47.845 9.50195 49.5406C5.56863 53.9818 3.63973 59.1302 4.42914 65.0885C5.08126 70.024 7.58677 73.8269 11.8633 76.4148C13.1676 77.2042 14.5748 77.7533 16.0918 78.1172V78.124ZM52.4527 37.9397C52.4527 37.0198 51.7456 36.2716 50.7709 36.1481C49.8511 36.0314 48.9175 36.656 48.7184 37.5759C48.6154 38.0564 48.6086 38.5575 48.5537 39.0517L52.4458 37.9397H52.4527ZM70.2933 37.8848L74.158 38.9556C74.1374 38.5781 74.1305 38.2211 74.0893 37.8642C73.9864 36.8757 73.1215 36.1 72.1536 36.1206C71.1651 36.1412 70.3482 36.91 70.2864 37.8779L70.2933 37.8848ZM92.0535 48.909H89.0812C89.5824 49.5886 90.056 50.227 90.5502 50.8928L92.0535 48.909Z" fill="#737373"/>
  <path d="M78.208 84.4873C72.5105 84.4804 67.8564 79.8058 67.9937 73.9985C68.131 68.301 72.8606 63.9284 78.4208 64.0107C83.9466 64.0862 88.5115 68.706 88.4703 74.3005C88.4291 79.9705 83.8574 84.5148 78.208 84.4942V84.4873ZM79.7319 66.7084C77.2675 66.7084 75.2837 68.6648 75.2837 71.1085C75.2837 73.5729 77.2881 75.591 79.7319 75.5704C82.1687 75.5498 84.1663 73.5385 84.1525 71.1154C84.1388 68.6923 82.155 66.7084 79.7387 66.7084H79.7319ZM75.1121 75.3096C73.3136 75.3027 71.879 76.7099 71.879 78.4878C71.879 80.2314 73.3136 81.6729 75.0709 81.6866C76.8007 81.7003 78.256 80.2794 78.2629 78.5496C78.2766 76.7236 76.9037 75.3164 75.1121 75.3096ZM82.1344 76.9845C82.1275 77.9867 82.8964 78.7898 83.8917 78.8104C84.8527 78.831 85.697 78.0141 85.7176 77.0325C85.7382 76.0509 84.9351 75.2409 83.9398 75.2341C82.917 75.2341 82.1413 75.9754 82.1344 76.9914V76.9845Z" fill="#737373"/>
  <path d="M45.2175 64.0176C50.915 64.0176 55.4181 68.5962 55.4181 74.3829C55.4181 79.9156 50.7983 84.4736 45.1901 84.4805C39.5269 84.4874 34.9209 79.8813 34.9415 74.2319C34.9621 68.5413 39.5132 64.0108 45.2175 64.0176ZM48.1349 71.1566C48.1349 68.7198 46.1717 66.7154 43.7691 66.7085C41.2773 66.7016 39.2798 68.6511 39.2729 71.1086C39.2592 73.5386 41.243 75.543 43.6868 75.5705C46.1099 75.5979 48.1349 73.5867 48.1418 71.1566H48.1349ZM45.1489 78.481C45.1489 80.2589 46.5424 81.6729 48.3134 81.6935C50.0707 81.7141 51.5397 80.252 51.5397 78.4878C51.5397 76.7306 50.1119 75.3165 48.3408 75.3165C46.5561 75.3165 45.1557 76.71 45.1557 78.4878L45.1489 78.481ZM39.4995 75.2272C38.4904 75.2272 37.6941 76.0029 37.6941 76.9983C37.6941 77.973 38.5178 78.8036 39.4857 78.8105C40.4742 78.8105 41.2773 78.0073 41.2773 77.012C41.2773 75.9892 40.5223 75.2272 39.4995 75.2272Z" fill="#737373"/>
  <path d="M56.283 83.4166C56.3928 82.5105 56.7978 81.5563 57.3813 80.6708C59.4543 77.5475 63.573 77.5612 65.6254 80.7051C66.1334 81.4877 66.4972 82.332 66.6757 83.2518C66.8473 84.1579 66.2982 84.9748 65.3921 85.167C64.5409 85.3523 63.7515 84.7826 63.4769 83.9177C63.2847 83.3136 63.0307 82.6889 62.6531 82.1878C62.0353 81.3778 60.9988 81.419 60.3192 82.181C59.8662 82.6889 59.6465 83.3067 59.4886 83.9589C59.2827 84.7757 58.5345 85.2906 57.7176 85.1945C56.9008 85.0983 56.2898 84.4119 56.2898 83.4166H56.283Z" fill="#737373"/>
  <path d="M49.803 62.6173C47.8672 62.5761 46.1923 61.9995 44.7439 60.7914C44.0437 60.2079 43.9407 59.2263 44.4899 58.533C45.0596 57.8191 46.0756 57.6749 46.7758 58.2721C48.6978 59.9127 51.5946 59.6793 53.242 57.7504C53.853 57.0296 54.8758 57.0091 55.5348 57.62C56.2281 58.2584 56.2693 59.2263 55.624 59.9539C54.0589 61.718 52.082 62.5761 49.803 62.631V62.6173Z" fill="#737373"/>
  <path d="M61.4725 71.7675C62.2345 71.7675 62.9896 71.7538 63.7515 71.7813C63.93 71.7813 64.1497 71.8842 64.2732 72.0147C64.9734 72.7697 64.9871 73.8337 64.2869 74.6025C63.7858 75.1517 63.2573 75.6803 62.7013 76.1814C61.9325 76.8747 60.8204 76.8197 60.0791 76.0921C59.5985 75.6185 59.118 75.138 58.6444 74.6575C57.9305 73.923 57.903 72.7835 58.5963 72.0352C58.7268 71.898 58.9602 71.7881 59.1524 71.7813C59.9212 71.7538 60.6969 71.7675 61.4725 71.7675Z" fill="#737373"/>
  <path d="M60.8273 60.3246C60.8273 60.5991 60.8616 60.8806 60.8273 61.1483C60.7106 61.924 59.9761 62.4937 59.1661 62.4594C58.363 62.432 57.6765 61.8004 57.6285 61.011C57.601 60.558 57.5941 60.098 57.6285 59.645C57.6834 58.7938 58.4247 58.1417 59.2691 58.1623C60.1477 58.1829 60.8341 58.8693 60.8616 59.7411C60.8616 59.9333 60.8616 60.1255 60.8616 60.3177H60.841L60.8273 60.3246Z" fill="#737373"/>
  <path d="M62.056 60.2902C62.056 60.1255 62.056 59.9607 62.056 59.796C62.0904 58.8899 62.7493 58.2103 63.6211 58.1829C64.5204 58.1554 65.2411 58.7938 65.3029 59.7136C65.3304 60.1255 65.3304 60.5442 65.3029 60.9561C65.2343 61.8622 64.4998 62.5006 63.5937 62.4663C62.7425 62.4319 62.0904 61.7661 62.056 60.8668C62.0492 60.6746 62.056 60.4824 62.056 60.2834V60.2902Z" fill="#737373"/>
  </g>
  <defs>
  <clipPath id="clip0_542_17471">
  <rect width="121.789" height="112" fill="white" transform="translate(0.605652)"/>
  </clipPath>
  </defs>
  </svg>
  