<svg width="1440" height="472" viewBox="0 0 1440 472" fill="none" xmlns="http://www.w3.org/2000/svg">
<g opacity="0.6" clip-path="url(#clip0_303_30290)">
<rect width="1440" height="472" fill="#0D0A2C"/>
<g filter="url(#filter0_f_303_30290)">
<ellipse cx="1312.5" cy="949.035" rx="683" ry="623" transform="rotate(5.93416 1312.5 949.035)" fill="#4D3589"/>
</g>
<g filter="url(#filter1_f_303_30290)">
<ellipse cx="297.717" cy="519.021" rx="651.829" ry="421.901" transform="rotate(16.4751 297.717 519.021)" fill="#0025CE"/>
</g>
<g filter="url(#filter2_f_303_30290)">
<path d="M762.177 633.449C208.967 546.276 92.1313 4.3045 -102.878 -0.884342C-348.017 -7.40707 -353.809 488.959 -175.403 696.856C34.8895 941.911 1137.08 692.525 762.177 633.449Z" fill="#00EAFF"/>
</g>
<g filter="url(#filter3_f_303_30290)">
<path d="M161.412 609.712C-9.42713 591.954 -99.1777 674.453 -111.911 796.958C-138.481 1052.58 1360.11 1300.22 1610.64 1110.78C1794.75 971.561 1796.16 748.721 1627.4 652C1436.67 542.696 1448.19 524.44 1244.5 574C1074.54 615.351 879.639 688.887 694.428 719.406C521.071 747.971 313.161 625.485 161.412 609.712Z" fill="#BADAFF"/>
</g>
<path d="M536.321 44.089L536.321 44.0893L536.191 44.5053L415.348 71.5484L415.052 71.2275L415.052 71.2273L330.955 -20.046L452.226 -47.1847L573.494 -74.3228L536.321 44.089Z" stroke="#737373"/>
<path d="M435.018 96.0474L527.069 75.4476L497.758 160.43L435.018 96.0474Z" stroke="#737373"/>
<rect y="28" width="1440" height="444" fill="url(#paint0_linear_303_30290)"/>
<path d="M971.741 23.7141V-28.5H1018.5V120.5H971.741V110.286V108.855L970.85 109.974C963.459 119.259 952.701 123.5 940.081 123.5C910.608 123.5 888.5 98.699 888.5 66.9991C888.5 34.8766 910.602 10.4999 940.081 10.4999C952.701 10.4999 963.459 14.7405 970.85 24.0254L971.741 25.1451V23.7141ZM953.964 84.2145L953.967 84.2144C957.548 84.129 961.026 83.0502 963.965 81.1101C966.904 79.1697 969.175 76.4527 970.488 73.2956C971.803 70.1382 972.1 66.684 971.341 63.3668C970.583 60.0498 968.804 57.0216 966.232 54.6591C963.661 52.297 960.411 50.7047 956.89 50.0775C953.369 49.4503 949.73 49.8151 946.426 51.1275C943.122 52.44 940.298 54.6432 938.31 57.4658C936.322 60.2888 935.259 63.6049 935.259 66.9991L935.259 67.0025C935.275 69.3003 935.775 71.5714 936.729 73.6839C937.683 75.7963 939.071 77.7072 940.812 79.3068C942.553 80.9062 944.613 82.1627 946.87 83.0046C949.127 83.8465 951.538 84.2575 953.964 84.2145Z" stroke="#525252"/>
<path d="M721.869 387.812L721.87 387.814C723.631 390.728 725.15 393.771 726.415 396.915L645.933 441.791L645.437 442.068L645.774 442.525C651.085 449.709 661.253 449.762 670.363 444.685L670.363 444.685C674.177 442.559 677.042 440.249 678.931 437.373C680.762 434.585 681.648 431.305 681.64 427.23L734.266 417.603C736.523 443.637 722.378 466.604 693.713 482.586L693.957 483.023L693.713 482.586C673.591 493.807 652.966 496.957 634.594 492.647C616.225 488.338 600.066 476.563 588.88 457.852C567.518 422.119 580.112 379.587 617.641 358.661C637.274 347.714 657.282 344.904 675.389 349.861C693.496 354.818 709.759 367.556 721.869 387.812ZM629.556 415.381L629.781 415.872L630.254 415.609L662.162 397.819L662.663 397.54L662.317 397.081C657.429 390.608 648.135 390.38 639.272 395.323L639.272 395.323C630.647 400.137 626.187 408.037 629.556 415.381Z" stroke="#525252"/>
<path d="M34.795 434.098V484.5H-32.5V331.877H34.4815V354.846L35.4243 355.079C40.1126 346.144 45.7513 339.515 52.773 335.115C59.7929 330.717 68.2342 328.523 78.5698 328.523H78.5799L78.5901 328.523C81.6068 328.4 84.622 328.771 87.5 329.619V395.826C82.5694 393.664 77.1653 392.612 71.7191 392.757C59.9144 392.758 50.657 396.217 44.3578 403.167C38.0649 410.109 34.795 420.459 34.795 434.098Z" stroke="#525252"/>
<path d="M1353.04 41.39L1343.19 104.367L1307.25 98.7466L1315.01 49.1484C1315.69 44.793 1316.13 40.491 1314.93 37.0479C1314.32 35.3082 1313.29 33.7859 1311.68 32.5887C1310.07 31.3957 1307.91 30.5452 1305.06 30.0988C1300.25 29.347 1296.68 30.6363 1294.13 33.4109C1291.61 36.1533 1290.15 40.2903 1289.39 45.1418L1281.63 94.74L1245.69 89.12L1253.45 39.5218C1254.13 35.1666 1254.57 30.8646 1253.37 27.4216C1252.76 25.6818 1251.74 24.1595 1250.12 22.9623C1248.52 21.7693 1246.35 20.9187 1243.5 20.4723C1238.69 19.7207 1235.12 21.0103 1232.58 23.7852C1230.06 26.5279 1228.6 30.665 1227.84 35.5164L1220.08 85.1146L1184.13 79.4919L1198.44 -12.0489L1233.08 -6.63165L1231.24 5.17642L1231.16 5.67042L1231.65 5.74767L1232.03 5.80615L1232.29 5.84647L1232.47 5.65806C1241.45 -3.72051 1252.7 -5.93872 1266.03 -3.85504C1276.35 -2.24124 1286.53 4.59051 1289.48 14.3221L1289.66 14.8912L1290.19 14.6231C1290.34 14.5449 1290.51 14.4184 1290.68 14.2824C1290.86 14.1409 1291.06 13.9625 1291.29 13.76C1291.33 13.7255 1291.37 13.6902 1291.42 13.654C1291.87 13.2629 1292.42 12.7781 1293.1 12.2345C1294.58 11.0485 1296.65 9.58489 1299.41 8.26271C1304.92 5.62157 1313.23 3.52629 1325.16 5.39255C1337.45 7.3139 1344.97 12.6462 1349.14 19.2889C1353.33 25.9462 1354.2 33.9882 1353.04 41.39Z" stroke="#525252"/>
<path d="M1204.3 525.876V489.817C1209.37 492.044 1214.88 493.202 1220.47 493.211H1220.47C1225.45 493.211 1229.91 492.67 1233.49 491.233C1236.1 490.184 1238.25 488.653 1239.76 486.51L1239.78 486.554L1239.93 486.261C1240.43 485.522 1240.85 484.713 1241.2 483.829L1240.29 483.415L1239.88 484.206L1193.75 374.5H1242.87L1264.82 435.682L1265.29 437.001L1265.76 435.681L1287.48 374.5H1335.25L1288.92 484.535C1281.84 501.215 1273.56 512.95 1263.79 520.515C1254.04 528.074 1242.78 531.5 1229.69 531.5C1217.18 531.495 1208.79 528.398 1204.3 525.876Z" stroke="#525252"/>
</g>
<defs>
<filter id="filter0_f_303_30290" x="330.066" y="25.3062" width="1964.87" height="1847.46" filterUnits="userSpaceOnUse" color-interpolation-filters="sRGB">
<feFlood flood-opacity="0" result="BackgroundImageFix"/>
<feBlend mode="normal" in="SourceGraphic" in2="BackgroundImageFix" result="shape"/>
<feGaussianBlur stdDeviation="150" result="effect1_foregroundBlur_303_30290"/>
</filter>
<filter id="filter1_f_303_30290" x="-758.815" y="-345.897" width="2113.06" height="1729.84" filterUnits="userSpaceOnUse" color-interpolation-filters="sRGB">
<feFlood flood-opacity="0" result="BackgroundImageFix"/>
<feBlend mode="normal" in="SourceGraphic" in2="BackgroundImageFix" result="shape"/>
<feGaussianBlur stdDeviation="210" result="effect1_foregroundBlur_303_30290"/>
</filter>
<filter id="filter2_f_303_30290" x="-619.333" y="-320.948" width="1778.66" height="1443.61" filterUnits="userSpaceOnUse" color-interpolation-filters="sRGB">
<feFlood flood-opacity="0" result="BackgroundImageFix"/>
<feBlend mode="normal" in="SourceGraphic" in2="BackgroundImageFix" result="shape"/>
<feGaussianBlur stdDeviation="160" result="effect1_foregroundBlur_303_30290"/>
</filter>
<filter id="filter3_f_303_30290" x="-432.26" y="227.875" width="2503.7" height="1269.75" filterUnits="userSpaceOnUse" color-interpolation-filters="sRGB">
<feFlood flood-opacity="0" result="BackgroundImageFix"/>
<feBlend mode="normal" in="SourceGraphic" in2="BackgroundImageFix" result="shape"/>
<feGaussianBlur stdDeviation="160" result="effect1_foregroundBlur_303_30290"/>
</filter>
<linearGradient id="paint0_linear_303_30290" x1="720" y1="28" x2="720" y2="472" gradientUnits="userSpaceOnUse">
<stop stop-color="#101010" stop-opacity="0"/>
<stop offset="0.734375" stop-color="#101010" stop-opacity="0.87503"/>
<stop offset="0.869792" stop-color="#101010" stop-opacity="0.961382"/>
<stop offset="1" stop-color="#101010"/>
</linearGradient>
<clipPath id="clip0_303_30290">
<rect width="1440" height="472" fill="white"/>
</clipPath>
</defs>
</svg>
