<svg width="233" height="82" viewBox="0 0 233 82" fill="none" xmlns="http://www.w3.org/2000/svg"><g clip-path="url(#a)"><path d="M127.21 80.78a2.767 2.767 0 0 1 .02-3.92c.51-.51 1.2-.8 1.92-.8.75-.02 1.47.27 2 .81a2.731 2.731 0 0 1 .04 3.86l-.04.04a2.731 2.731 0 0 1-3.86.03l-.03-.03h-.05v.01Zm14.67-5.14 4.75 1.87a5.789 5.789 0 0 1-2.58 3 8.476 8.476 0 0 1-9.25-.58 6.854 6.854 0 0 1 0-10 8.497 8.497 0 0 1 9.25-.62 5.93 5.93 0 0 1 2.57 2.89l-4.75 1.9c-.13-.99-1-1.72-2-1.68-1.23 0-2.11.87-2.11 2.45s.89 2.47 2.12 2.47c1 .01 1.85-.71 2-1.7Zm9.97 5.47a6.14 6.14 0 0 1-3.92-3.36c-.41-.91-.61-1.89-.6-2.89-.01-1 .19-1.99.58-2.91a6.198 6.198 0 0 1 3.92-3.38c1.81-.58 3.74-.58 5.55 0 1.73.51 3.16 1.73 3.93 3.36.4.92.6 1.91.59 2.91.02 1-.18 1.99-.58 2.9a6.232 6.232 0 0 1-3.92 3.37c-1.8.58-3.75.58-5.55 0Zm2.78-3.91c.57.01 1.11-.21 1.5-.62.42-.47.64-1.1.6-1.73.04-.63-.18-1.25-.6-1.72-.83-.81-2.17-.81-3 0a2.753 2.753 0 0 0 0 3.45c.39.41.93.63 1.5.62Zm29.2-7.33a9.624 9.624 0 0 1 1 4.92v6.47h-5.19V74.8c0-1.56-.51-2.34-1.52-2.34s-1.63.82-1.63 2.35v6.47h-5.18v-6.47c0-1.56-.51-2.34-1.52-2.34s-1.63.82-1.63 2.35v6.47h-5.19V68.35h5l.23 1.29c.55-1 1.87-1.54 3.57-1.54 2.06 0 3.43.8 4.12 2.42a4.38 4.38 0 0 1 4.22-2.43c1.47-.14 2.9.54 3.72 1.78Z" fill="#fff"/><path d="M29.23 46.75c.48 5.12-2.18 9.64-7.58 12.77-7.54 4.37-15.49 2.49-19.7-4.78-4-6.94-1.67-15.23 5.37-19.31 7.36-4.26 15-2.22 19.59 5.63.33.59.62 1.21.86 1.85l-15 8.74c.95 1.33 2.79 1.36 4.47.39 1.3-.6 2.1-1.95 2-3.38l9.99-1.91Zm-19.54-.32 5.95-3.45c-.87-1.19-2.55-1.25-4.18-.3s-2.37 2.4-1.77 3.75Z" fill="#EB2429"/><path d="M77.7 59.91c-4.19 3-9.43 2.93-14.85-.19-7.55-4.34-9.9-12.17-5.71-19.45 4-7 12.36-9.06 19.41-5 7.37 4.23 9.44 11.9 4.91 19.78-.34.59-.72 1.16-1.15 1.69L65.2 48.06c-.68 1.48.22 3.09 1.9 4.06 1.18.87 2.78.91 4 .09l6.6 7.7Zm-9.49-17.09 6 3.43c.6-1.35-.19-2.83-1.83-3.77-1.64-.94-3.3-.85-4.17.34Z" fill="#FAAF1C"/><path d="M104.52 45.4c-.82-.4-1.72-.6-2.63-.57-3.78 0-5.87 2.37-5.87 7v8.77h-11V34.14h11v4c1.51-3.1 3.66-4.62 7-4.63.52-.02 1.04.05 1.53.21l-.03 11.68Z" fill="#F05B8E"/><path d="M107.87 71.2v-9a9 9 0 0 0 3.89.88c2.31 0 4.09-.53 4.72-2.21l-.21.42-10.99-27.09h11.71l5.17 15 5.06-15h11.39l-10.84 26.85c-3.3 8.14-7.75 11.51-13.89 11.52-2.09.08-4.16-.39-6.01-1.37Z" fill="#75C044"/><path d="M155.41 60.53v-2.62a8.587 8.587 0 0 1-7.19 3.37c-6.87 0-12-6.12-12-13.94 0-7.82 5.12-14 12-14 2.8-.13 5.5 1.12 7.2 3.35V23.78h11l.07 36.74h-11.08v.01Zm-4-9.11a4.1 4.1 0 1 0-4.21-4.09 4.114 4.114 0 0 0 4.15 4.09h.06Z" fill="#F15B27"/><path d="m194.14 30.55 6.89 25.54-10.59 2.86-.67-2.53a8.524 8.524 0 0 1-6.07 5.11c-6.64 1.8-13.21-2.79-15.24-10.34-2.03-7.55 1.33-14.82 8-16.62 2.67-.85 5.59-.33 7.82 1.37l-.68-2.53 10.54-2.86Zm-9.93 20.65a4.091 4.091 0 0 0-2.34-7.84 4.093 4.093 0 0 0-2.78 4.98 4.117 4.117 0 0 0 5.07 2.87h.05v-.01Z" fill="#0197CD"/><path d="m193.42 72.2 2.35-8.76c1.02.88 2.22 1.51 3.52 1.86 2.24.6 4.1.55 5.14-.91l-.31.35-3.59-29 11.31 3 1.12 15.78 8.77-13.15 11 2.93-17.44 23.26c-5.29 7-10.47 9.11-16.4 7.53-2.05-.46-3.94-1.46-5.47-2.89Z" fill="#91298C"/><path d="M25.32 9.82h5.94v2.15h.07a5.862 5.862 0 0 1 5.28-2.57c1.81-.05 3.5.93 4.36 2.52a6.28 6.28 0 0 1 5.51-2.53c4.14 0 5.54 2.85 5.55 5.46v11.08h-6.15V17.2c0-1.53-.16-2.9-2-2.89-1.6-.01-2.11 1.2-2.11 2.89v8.74h-6.16V17.2c0-1.53-.16-2.9-2-2.89-1.56 0-2.08 1.21-2.08 2.89v8.75h-6.19l-.02-16.13Zm62.33-.11h6v2.05h.06a6.004 6.004 0 0 1 5.26-2.47 5.22 5.22 0 0 1 5.55 4.85c.01.21.02.41 0 .62v11.08h-6.17v-8.46c0-1.87-.22-3.18-2-3.18-1.06 0-2.46.54-2.45 3.12v8.53h-6.16l-.09-16.14Zm17.95-6.1h6.17v10.73l3.91-4.67h7l-5.74 6.11 6.67 10h-7.4l-3.31-5.85-1.13 1.27v4.67h-6.16V3.61h-.01Z" fill="#fff"/><path d="M127.38 19.1a3.064 3.064 0 0 0 3.04 3.1h.11c1 .05 1.95-.38 2.58-1.16h5.75c-1.23 3.49-4.62 5.11-8.3 5.12-5.16 0-9.06-3-9.07-8.42-.13-4.58 3.47-8.41 8.05-8.54h.47c6.41 0 9.18 3.56 9.19 9.85l-11.82.05Zm5.9-3.22a2.655 2.655 0 0 0-2.62-2.68h-.09a2.934 2.934 0 0 0-3.17 2.67v.04l5.88-.03Z" fill="#fff"/><path d="M150.2 24.5a15.74 15.74 0 0 1-2 4.49c-1.61 2-4.1 2-6.5 2h-2.8v-4.91h1.43c.63.07 1.26.01 1.87-.16.37-.19.59-.5.59-1.22s-2.38-6.72-2.72-7.65l-2.75-7.43h6.6l2.59 9.27h.07l2.6-9.28h6.37L150.2 24.5ZM50.32 48.51l8.2-14.26-16.45.03-16.45.03 8.25 14.23.05.08 16.35-.03.05-.08Zm-8.2 14.26 5.96-10.37-11.96.02 6 10.35Zm39.23-51.8c.01-.09.01-.17 0-.26 0-.4-.32-.73-.72-.74h-.38l-.07-.09-.29-.33c-.12-.14-.24-.29-.38-.43l-.18-.18-.53-.52h-.07a13.14 13.14 0 0 0-4.12-2.52c-.14-.92-.56-1.78-1.2-2.46-.13-.14-.27-.27-.39-.38l-.12-.1c-.18-.15-.38-.28-.59-.4l-.71-.37-.07.79c-.04.34-.13.68-.26 1a3.31 3.31 0 0 0-.12-.42c-.06-.19-.1-.39-.17-.56a4.25 4.25 0 0 0-.31-.6c-.03-.07-.06-.14-.1-.2-.14-.23-.31-.44-.49-.63-.15-.15-.3-.3-.47-.43-.55-.47-1.22-.8-1.93-.94L66.01 0l1.25 1.13s.09.09.13.14c.09.09.18.19.26.29.07.09.12.19.18.28l.09.16c.05.1.09.2.12.31v.14c.03.1.05.2.06.3v.41c0 .19-.03.39-.07.58v.07c-.04.19-.09.38-.16.56-.08-.12-.16-.24-.26-.35-.08-.09-.17-.17-.26-.25l-.1-.1-.12-.08c-.12-.08-.25-.14-.38-.19h-.12c-.15-.05-.32-.08-.48-.08-.29 0-.57.06-.84.16l-.75.29.55.58c.33.38.55.83.66 1.31-.34.11-.67.23-1 .37l-.24.11c-.22.1-.45.2-.66.31l-.57.32-.3.17-.58.38-.26.18-.5.38-.3.24-.39.36-.37.34-.29.3-.41.45-.22.26-.14.18h-.46a.74.74 0 0 0-.72.74c0 .09.02.18.06.26-2.8.9-4.67 3.53-4.59 6.47a6.684 6.684 0 0 0 4.05 6.27c3.04 6.65 10.89 9.57 17.53 6.53a13.22 13.22 0 0 0 6.57-6.61c2.45-1.1 4-3.56 3.94-6.24a6.597 6.597 0 0 0-4.57-6.46Zm-.7-.4c.08 0 .14.05.15.13 0 0 0 .12-.13.13h-8.5c-.15 0-.3-.03-.44-.1l-.11-.06-.07-.05a1.56 1.56 0 0 1-.4-.41 1.77 1.77 0 0 1-.38-1.01c.06-.75.72-1.3 1.47-1.24.66.06 1.18.58 1.24 1.24 0 .07-.06.13-.13.13s-.13-.06-.13-.13c.06-.6-.39-1.14-.99-1.2-.6-.06-1.14.39-1.2.99v.21c.02.39.18.77.44 1.06.17.19.41.3.66.31h8.52Zm-2.61 5.06c.5.36 1.12.52 1.74.45-.34.53-.78.98-1.29 1.34l-.09.09c-.04.07-.06.14-.06.22v.15s.08.05.12.07h.08c.21.04.42.04.63 0-.13.34-.38.63-.71.79-.15.04-.26.18-.26.34v2.52c0 .37-.05.73-.13 1.09-.03.17-.08.34-.13.5l-.1.27-.24.13a7.88 7.88 0 0 1-5.15.84c-.76-.13-1.49-.38-2.17-.75v-1.55c.25-.05.48-.17.66-.34l1-1c.53-.53.53-1.4 0-1.93l-.14-.14h-3.7l-.14.14c-.53.53-.54 1.39 0 1.92l1 1.01c.16.15.36.26.57.32v1.66c-.65.35-1.35.6-2.08.73a7.82 7.82 0 0 1-5.3-.84l-.26-.14-.1-.25-.02-.24c0-.11 0-.22-.06-.33-.08-.41-.12-.82-.12-1.24v-3.85c-.02-1 .22-2 .7-2.88.1-.17.22-.33.34-.48.22-.31.46-.6.73-.86.12-.12.23-.25.36-.36.13-.11.27-.21.4-.3.39-.3.81-.56 1.25-.78.35-.17.7-.33 1.07-.45h1.11c.45-.01.87-.19 1.19-.51.72-.07 1.44-.07 2.16 0 .32.31.74.49 1.19.5h1.12a9.6 9.6 0 0 1 1.85.83l.51.34c.14.1.26.2.39.31.13.11.26.22.38.34.27.26.52.55.74.85l.09.11c.15.21.22.42.5.46.26.03.53.02.78-.05.07-.02.14-.04.21-.07-.15.21-.36.36-.6.43-.17.1-.22.31-.12.48.03.04.06.08.1.11Zm-.7 9c-.08.12-.15.24-.24.36-2 2.52-5.5 3.39-8.57 3a8.486 8.486 0 0 1-6-3.4c2.34 1.05 5.03 1 7.32-.15l.12-.06.23.11c.43.2.87.37 1.32.51a8.507 8.507 0 0 0 5.82-.38v.01ZM66.49 6.57l.39-.12v-.41c-.02-.58-.17-1.15-.44-1.66.08.03.15.08.22.13.11.09.2.19.27.31v.06c.07.12.14.24.2.36v.12s.06.14.08.2c.01.08.03.15.06.22l.24 1.21.72-1c.14-.22.27-.45.38-.68.1-.19.18-.39.25-.59.06-.19.13-.39.18-.6l.06-.37V3.2c.01-.18.01-.35 0-.53-.03-.19-.07-.37-.13-.55.66.53 1.12 1.27 1.31 2.09v2.54l.92-.86a4.9 4.9 0 0 0 1.18-2l.39.32.13.15c.07.1.15.21.22.33l.1.18c.08.15.15.31.2.47.03.05.05.1.06.16.08.25.13.5.15.76v.35l.33.11c.9.31 1.75.73 2.55 1.25.25.16.49.33.73.51.55.43 1.06.9 1.53 1.41h-6.6c-.22 0-.5-.43-.5-.76 0-.28.22-.5.5-.5s.5.22.5.5c0 .4.33.73.73.73.4 0 .73-.33.73-.73a1.994 1.994 0 0 0-2.38-1.53c-.77.17-1.37.77-1.53 1.53 0 .35.08.69.23 1-.36-.02-.72-.02-1.08 0 .15-.31.23-.65.23-1a2.004 2.004 0 0 0-2.36-1.56c-.79.16-1.4.77-1.56 1.56.05.41.41.7.82.65.34-.04.61-.31.65-.65 0-.28.22-.5.5-.5s.5.22.5.5c0 .33-.28.77-.49.77h-6.65c1.49-1.59 3.39-2.74 5.48-3.33Zm-7.37 4.06h8.48c.24 0 .48-.11.64-.29.32-.29.51-.7.53-1.13 0-.61-.49-1.1-1.1-1.1-.61 0-1.1.49-1.1 1.1 0 .07-.06.13-.13.13a.131.131 0 0 1-.16-.08v-.05c0-.75.61-1.36 1.36-1.36.75 0 1.36.61 1.36 1.36a1.886 1.886 0 0 1-.74 1.4h-.06l-.12.06c-.14.07-.29.11-.44.11h-8.49c-.09 0-.12-.05-.12-.08 0 0 .06-.06.1-.07h-.01Zm-2.26 9.58c.09.68.24 1.35.45 2a5.768 5.768 0 0 1-2.37-4.73 5.622 5.622 0 0 1 3.18-5.21 13.6 13.6 0 0 0-.79 1.94 4.58 4.58 0 0 0-1.34 3.28c0 .98.3 1.93.87 2.72Zm24.91 1.1c-.14.51-.3 1.02-.49 1.51l-.28.61c-.09.19-.17.38-.27.55l-.1.18c-.26.43-.55.84-.86 1.24-.08.11-.17.22-.26.33-.26.35-.53.68-.83 1l-.45.44-.18.16c-.52.47-1.08.89-1.67 1.27l-.29.17-.54.31-.4.19c-.27.13-.55.25-.83.36l-.47.17-.48.16-.77.2-.49.09c-.23.05-.46.08-.7.11l-.42.05h-2.51l-.71-.2-.5-.1c-.25-.05-.5-.12-.75-.19l-.49-.15-.46-.17c-.31-.12-.61-.25-.91-.39l-.32-.16-.57-.29-.26-.16c-.6-.37-1.17-.8-1.7-1.27l-.12-.12a9.77 9.77 0 0 1-.47-.45c-.29-.32-.56-.65-.82-1-.09-.12-.19-.23-.28-.36-.26-.36-.5-.73-.73-1.12-.03-.06-.07-.12-.11-.18l-.27-.55c-.09-.2-.19-.39-.27-.6-.2-.48-.37-.98-.5-1.48-.3-1.04-.46-2.12-.47-3.2a12.156 12.156 0 0 1 1.8-6.36l.28-.44h4.92c-.38.22-.75.47-1.1.74-.13.1-.27.2-.39.31l-.36.36c-.27.27-.52.56-.74.87-.11.12-.2.25-.29.39-.61.97-.93 2.09-.92 3.24v4.32c0 .26.03.52.06.78 0 .14.07.28.1.42.03.14.07.33.12.49.06.16.12.31.2.46.33.79.81 1.5 1.41 2.11 2.39 2.19 5.67 3.15 8.87 2.59a8.735 8.735 0 0 0 6.77-4.63l.06-.07v-.24l.08-.23v-.07c0-.16.09-.32.13-.48.08-.4.13-.8.15-1.21v-2.3c.61-.44 1.05-1.09 1.21-1.83a.364.364 0 0 0-.27-.43c-.04 0-.07-.01-.11 0 .35-.39.66-.82.91-1.28.09-.18.03-.39-.15-.49a.317.317 0 0 0-.16-.04c-.26.02-.51.02-.77 0-.2.01-.39.01-.59 0 .4-.32.68-.77.78-1.27 0-.27-.32-.44-.53-.3-.36.26-.8.39-1.24.39l-.23-.32c-.23-.31-.48-.61-.76-.88-.12-.12-.23-.25-.36-.36-.13-.11 0 0 0 0-.13-.11-.27-.2-.41-.3-.34-.26-.7-.49-1.07-.7h4.94l.3.46c.27.44.51.9.72 1.38.67 1.54 1.01 3.2 1 4.87 0 1.04-.11 2.09-.36 3.1v-.01Zm.89.81c.21-.68.36-1.38.45-2.09.5-.77.77-1.67.77-2.59 0-1.18-.44-2.32-1.25-3.18-.09-.27-.19-.54-.29-.81v-.12c-.11-.27-.23-.54-.36-.81v-.09a.539.539 0 0 0-.07-.13c1.95.98 3.16 2.99 3.12 5.17a5.752 5.752 0 0 1-2.41 4.65h.04Zm-16.79-7.7a1.62 1.62 0 0 0-.44 0c-.17.02-.33.07-.48.13-.16.07-.31.16-.45.26a2.6 2.6 0 0 0-.76.89c-.19.36-.3.75-.31 1.16 0 .27.2.48.47.49.05 0 .1 0 .15-.02.22-.04.38-.24.38-.47a1.508 1.508 0 0 1 .89-1.31c.16-.06.32-.09.49-.11h.06c.83 0 1.5.67 1.51 1.5.06.28.32.46.6.4.2-.04.36-.2.4-.4a2.568 2.568 0 0 0-2.55-2.52h.04Zm9.69.26c-.16-.07-.32-.13-.49-.18-.17-.04-.35-.06-.52-.06a2.544 2.544 0 0 0-2.51 2.51c.06.28.32.46.6.4.2-.04.36-.2.4-.4.01-.67.48-1.26 1.13-1.42.12-.05.24-.07.37-.08h.25c.17.03.33.09.48.17.47.27.76.76.78 1.3.07.6 1 .59 1 0-.01-.56-.2-1.09-.55-1.53-.27-.31-.6-.55-.98-.71h.04Z" fill="#fff"/></g><defs><clipPath id="a"><path fill="#fff" d="M0 0h232.73v81.61H0z"/></clipPath></defs></svg>