<svg width="123" height="112" viewBox="0 0 123 112" fill="none" xmlns="http://www.w3.org/2000/svg">
<g opacity="0.5" clip-path="url(#clip0_1492_28420)">
<path d="M47.3113 0H49.0548C49.2059 0.0205933 49.35 0.0549154 49.501 0.0617798C52.6518 0.212797 55.7271 0.782544 58.6788 1.91517C62.4679 3.37043 65.6324 5.62883 67.8702 9.07477C67.9251 9.15714 68.0007 9.21892 68.0968 9.32189L68.5979 7.27629C68.7352 7.29688 68.8518 7.29688 68.9548 7.32434C71.6251 8.07256 74.007 9.34248 75.984 11.2988C78.6131 13.9005 79.8281 17.1061 79.9448 20.7649C79.9516 21.0669 80.0546 21.1973 80.3154 21.3072C81.1117 21.6573 81.908 22.0142 82.6837 22.4055C90.365 26.3182 96.5567 31.8921 101.259 39.1272C101.362 39.2851 101.588 39.4155 101.774 39.4567C102.364 39.5871 102.975 39.6421 103.565 39.7725C108.528 40.8571 112.709 43.3077 116.134 47.035C119.285 50.4673 121.31 54.4761 122.072 59.089C122.216 59.9539 122.291 60.8394 122.401 61.7112V63.7019C122.374 63.8803 122.339 64.0519 122.326 64.2304C122.134 67.0105 121.44 69.6602 120.102 72.0971C117.04 77.671 112.317 80.9247 106.057 81.9544C105.7 82.0162 105.46 82.1054 105.302 82.4967C102.323 89.7867 97.8129 95.9715 91.7584 100.996C84.0222 107.415 75.1328 111.032 65.1039 111.821C64.4037 111.876 63.7035 111.924 63.0034 111.979H60.0173C59.9075 111.959 59.8045 111.931 59.6947 111.924C56.4959 111.815 53.3314 111.396 50.2355 110.6C38.0512 107.476 28.5371 100.598 21.652 90.0887C20.0732 87.6793 18.769 85.1257 17.705 82.4486C17.5814 82.1466 17.4167 82.0093 17.0941 81.9612C16.4557 81.872 15.8036 81.769 15.1858 81.5974C7.31226 79.4077 2.56894 74.2799 0.955799 66.276C0.770459 65.4523 0.715544 64.5805 0.605713 63.7156V61.7249C0.633171 61.5602 0.660628 61.4023 0.681222 61.2375C0.811646 60.2559 0.887154 59.2537 1.08622 58.2858C2.21885 52.8492 4.98522 48.3805 9.20684 44.8178C12.6871 41.8799 16.6959 40.0814 21.2265 39.4704C21.3981 39.4499 21.5903 39.2851 21.6932 39.1341C23.7114 36.0451 26.0315 33.2032 28.6881 30.6428C32.6832 26.8056 37.2 23.7509 42.2591 21.4994C43.1652 21.0944 44.085 20.7306 45.0186 20.3462C44.998 20.2706 45.0048 20.1951 44.9705 20.1402C43.0141 17.3464 41.0578 14.5594 39.0946 11.7656C39.122 11.7588 39.2112 11.7176 39.3005 11.7038C40.8313 11.491 42.3552 11.2233 43.8928 11.0929C45.9041 10.9213 47.9222 10.9831 49.9129 11.4018C51.272 11.6901 52.5626 12.15 53.757 12.9738C53.757 12.7953 53.7638 12.6786 53.757 12.5619C53.6471 11.038 53.1872 9.61706 52.542 8.24417C51.2034 5.4023 49.4118 2.84874 47.4829 0.391272C47.4005 0.281441 47.3662 0.137288 47.3113 0.00686442V0ZM93.1588 53.9681C92.8567 54.2839 92.5959 54.5928 92.3076 54.8605C91.477 55.6362 90.5366 56.1716 89.3628 56.1922C89.1088 56.1922 88.9715 56.1235 88.8617 55.8764C87.6947 53.3023 86.0266 51.0851 83.9879 49.1356C83.782 48.9365 83.576 48.8541 83.2946 48.861C79.5878 48.8678 75.881 48.861 72.1811 48.861C67.4309 48.861 63.2505 45.7789 61.8501 41.2346C61.7746 40.9943 61.7266 40.8227 61.4039 40.8227C61.0813 40.8227 60.9921 40.9669 60.9097 41.2346C59.5162 45.7789 55.3358 48.861 50.5787 48.861C46.9543 48.861 43.3368 48.861 39.7124 48.861C39.4309 48.861 39.2181 48.9365 39.019 49.1356C37.8246 50.2888 36.7332 51.5381 35.7996 52.9179C33.7197 56.0068 32.5116 59.3841 32.4772 63.1253C32.4361 68.1157 32.4498 73.1061 32.4635 78.0966C32.4704 81.0757 33.2049 83.8901 34.5915 86.5261C36.589 90.3152 39.527 93.2258 43.1102 95.4979C48.5812 98.9644 54.615 100.502 61.0401 100.612C65.1725 100.681 69.2157 100.07 73.1352 98.7242C78.2561 96.96 82.718 94.2074 86.1571 89.9583C88.3331 87.2674 89.8295 84.2402 90.2963 80.7874C90.4954 79.3047 90.4679 77.7877 90.5297 76.2844C90.5366 76.051 90.5984 75.9274 90.8111 75.8038C91.2779 75.543 91.7516 75.2684 92.1634 74.9252C94.1816 73.2777 95.3691 71.0948 96.1723 68.6648C96.1791 68.6374 96.1517 68.5893 96.1448 68.5481C94.3738 69.0081 92.6028 69.3787 90.77 69.0424C90.8729 68.9669 90.9759 68.9257 91.0926 68.8914C92.843 68.4109 94.2845 67.4636 95.4035 66.0358C96.7969 64.2579 97.4696 62.1848 97.7717 59.9745C97.8335 59.5352 97.8472 59.089 97.8952 58.5741C97.2294 58.9723 96.6734 59.3224 96.0968 59.6381C95.527 59.9539 94.9504 60.2559 94.3669 60.5236C93.7628 60.7982 93.1519 61.0453 92.5273 61.265C91.9232 61.4778 91.2985 61.6357 90.6807 61.8141C93.7972 59.9539 93.9894 56.4942 93.1862 53.9612L93.1588 53.9681ZM101.726 51.2773C101.787 51.8195 101.849 52.2863 101.89 52.7531C102.131 55.4714 102.172 58.1897 101.98 60.908C101.767 63.9764 101.259 66.9968 100.215 69.9004C99.0896 73.0238 97.4353 75.7901 94.7582 77.8494C94.4973 78.0554 94.415 78.2613 94.4081 78.5771C94.2983 82.984 92.9323 86.986 90.4748 90.6104C87.3515 95.2164 83.123 98.5182 78.1326 100.873C72.387 103.584 66.312 104.696 59.983 104.47C54.2993 104.264 48.8901 102.953 43.8173 100.358C39.5476 98.1681 35.8751 95.2439 33.0401 91.3449C30.0678 87.2537 28.5302 82.6889 28.5645 77.6092C28.5988 72.8247 28.5508 68.0402 28.5851 63.2557C28.592 62.1436 28.7018 61.0179 28.8734 59.9196C29.5049 55.9451 31.2005 52.4305 33.6717 49.2728C33.7609 49.163 33.8364 49.0395 33.9668 48.8678H33.4314C29.4088 48.8678 25.3863 48.8747 21.3637 48.8541C20.9313 48.8541 20.7459 48.9845 20.5949 49.3827C19.0436 53.5974 18.1237 57.9495 17.8972 62.4319C17.6158 68.0265 18.3159 73.4974 20.1831 78.783C24.1232 89.9514 31.3446 98.2917 41.8952 103.694C46.9337 106.275 52.3017 107.73 57.9443 108.197C62.2277 108.554 66.4768 108.3 70.6778 107.38C79.4093 105.465 86.8778 101.271 93.0833 94.8458C96.3095 91.5097 98.9112 87.7273 100.895 83.54C104.437 76.0578 105.776 68.1912 104.911 59.9539C104.519 56.254 103.648 52.6707 102.337 49.1905C102.24 48.9365 102.117 48.8678 101.856 48.8678C100.058 48.8816 98.259 48.8678 96.4606 48.8678C96.3576 48.8678 96.2478 48.8816 96.1036 48.8884C96.8038 50.6045 97.4834 52.2863 97.3049 54.229C98.8013 53.2267 100.236 52.2726 101.726 51.2704V51.2773ZM40.1585 39.9578C39.63 38.7703 39.6849 37.569 39.884 36.3746C40.8175 30.7114 45.753 26.7919 51.4574 27.2998C55.9124 27.698 58.9808 30.0936 60.6763 34.2123C61.0264 35.0703 61.1843 36.0039 61.4245 36.8757C61.4451 36.7796 61.4795 36.6354 61.5 36.4844C62.262 31.2537 66.7239 27.3135 71.982 27.2312C76.5675 27.1557 80.6793 29.9014 82.2993 34.1848C82.9994 36.0314 83.3495 37.9397 82.6562 39.8892C82.6562 39.9029 82.6768 39.9372 82.6837 39.9441H97.4628C97.3804 39.8068 97.3255 39.7107 97.2637 39.6215C95.2936 36.8139 93.0284 34.2741 90.4611 32.0019C86.4934 28.5011 82.0453 25.8034 77.1029 23.9088C76.842 23.8058 76.7322 23.6823 76.6773 23.394C76.4576 22.1858 76.2448 20.9708 75.9428 19.7833C75.4142 17.7102 74.5493 15.795 72.9705 14.278C72.387 13.7151 71.7555 13.2209 71.021 12.8502C70.0188 15.5479 68.7832 17.3258 67.63 17.772C66.2708 9.50036 59.3377 5.42976 54.9102 5.01103C57.601 9.34248 58.1502 13.9073 56.489 18.7811C53.4893 16.3922 50.1531 15.1841 46.2885 15.2528C48.0046 17.5317 49.0411 19.9823 49.3912 22.7212C39.4652 25.7279 31.5231 31.4322 25.4961 39.9578H40.1654H40.1585ZM35.3466 46.1495C40.4468 46.1495 45.554 46.1495 50.6543 46.1495C51.1622 46.1495 51.677 46.1015 52.1782 46.0054C56.2968 45.1954 59.1387 41.3032 58.6238 37.013C58.1296 32.9081 54.1894 29.6612 50.0639 29.9769C45.5608 30.327 42.4375 34.0887 42.4993 38.0426C42.513 38.9007 43.1377 39.594 43.9958 39.7038C44.8607 39.8137 45.6913 39.2645 45.8835 38.4408C45.9521 38.1593 45.9453 37.8642 45.9796 37.5759C46.2542 34.7889 49.0274 32.8531 51.7388 33.5739C54.0384 34.1848 55.4937 36.3471 55.1916 38.6948C54.8896 40.9875 52.8989 42.7105 50.5376 42.7105C42.0188 42.7105 33.5 42.7105 24.9882 42.7105C23.2171 42.7105 21.4461 42.6899 19.682 42.7242C19.2907 42.731 18.8582 42.8546 18.5219 43.0605C17.8972 43.4381 17.6707 44.2549 17.8903 44.9688C18.1169 45.6965 18.769 46.1564 19.5996 46.1564C24.8509 46.1564 30.109 46.1564 35.3603 46.1564L35.3466 46.1495ZM87.3721 46.1495C89.2392 46.1495 91.1063 46.1495 92.9734 46.1495C96.3851 46.1495 99.8035 46.1495 103.215 46.1495C104.485 46.1495 105.309 44.9688 104.869 43.8019C104.595 43.0811 103.97 42.7036 103.05 42.7036C92.8224 42.7036 82.5944 42.7036 72.3596 42.7036C72.085 42.7036 71.8036 42.6967 71.5358 42.6487C69.6962 42.3466 68.4194 41.317 67.8153 39.5665C67.1975 37.7749 67.5819 36.1343 68.9136 34.7958C70.2247 33.4847 71.8379 33.1071 73.6089 33.6563C75.5035 34.2466 76.7459 35.9421 76.8214 37.9465C76.8626 39.0037 77.604 39.745 78.6062 39.7107C79.5947 39.6832 80.2674 38.935 80.2605 37.871C80.2605 33.0865 75.7506 29.3042 70.9592 30.0525C66.8131 30.6977 63.7859 34.432 64.0879 38.53C64.4106 42.9027 67.8565 46.1495 72.1811 46.1495C77.2402 46.1495 82.2993 46.1495 87.3583 46.1495H87.3721ZM106.888 78.0966C107.004 78.0828 107.1 78.076 107.19 78.0554C110.306 77.2179 112.963 75.6254 115.036 73.1473C118.372 69.1522 119.395 64.505 118.454 59.4734C117.287 53.2062 113.738 48.5658 108.261 45.3738C108.137 45.2983 108 45.2366 107.917 45.2022C107.663 45.7789 107.478 46.3486 107.162 46.8428C106.846 47.3302 106.407 47.7352 106.023 48.1814C106.023 48.1814 106.023 48.1951 106.043 48.202C106.153 48.2638 106.263 48.3187 106.373 48.3805C112.242 51.7509 115.406 56.7001 114.905 63.592C114.61 67.642 112.599 70.8203 109.119 72.9482C108.267 73.4699 107.787 74.0054 107.643 74.9938C107.492 76.0372 107.162 77.0532 106.901 78.1172L106.888 78.0966ZM16.0919 78.124C15.7486 76.6344 15.4191 75.1998 15.0759 73.7651C15.0485 73.6553 14.918 73.5523 14.8013 73.4974C9.65303 70.8615 7.21616 65.3493 8.21836 59.7754C9.15192 54.5722 12.1036 50.8173 16.7165 48.3187C16.8195 48.2638 16.9156 48.202 17.0529 48.1196C16.0301 47.3645 15.4123 46.4035 15.1789 45.2091C15.1171 45.2091 15.0828 45.2022 15.0622 45.2091C14.9592 45.2572 14.8631 45.3052 14.767 45.3601C12.7763 46.4584 11.0053 47.845 9.50201 49.5406C5.56869 53.9818 3.63979 59.1302 4.4292 65.0885C5.08132 70.024 7.58683 73.8269 11.8634 76.4148C13.1676 77.2042 14.5748 77.7533 16.0919 78.1172V78.124ZM52.4527 37.9397C52.4527 37.0198 51.7457 36.2716 50.7709 36.1481C49.8511 36.0314 48.9175 36.656 48.7185 37.5759C48.6155 38.0564 48.6086 38.5575 48.5537 39.0517L52.4459 37.9397H52.4527ZM70.2934 37.8848L74.158 38.9556C74.1375 38.5781 74.1306 38.2211 74.0894 37.8642C73.9864 36.8757 73.1215 36.1 72.1536 36.1206C71.1652 36.1412 70.3483 36.91 70.2865 37.8779L70.2934 37.8848ZM92.0536 48.909H89.0813C89.5824 49.5886 90.0561 50.227 90.5503 50.8928L92.0536 48.909Z" fill="#737373"/>
<path d="M78.208 84.4873C72.5105 84.4804 67.8564 79.8058 67.9937 73.9985C68.131 68.301 72.8606 63.9284 78.4208 64.0107C83.9466 64.0862 88.5115 68.706 88.4703 74.3005C88.4291 79.9705 83.8574 84.5148 78.208 84.4942V84.4873ZM79.7319 66.7084C77.2675 66.7084 75.2837 68.6648 75.2837 71.1085C75.2837 73.5729 77.2881 75.591 79.7319 75.5704C82.1687 75.5498 84.1663 73.5385 84.1525 71.1154C84.1388 68.6923 82.155 66.7084 79.7387 66.7084H79.7319ZM75.1121 75.3096C73.3136 75.3027 71.879 76.7099 71.879 78.4878C71.879 80.2314 73.3136 81.6729 75.0709 81.6866C76.8007 81.7003 78.256 80.2794 78.2629 78.5496C78.2766 76.7236 76.9037 75.3164 75.1121 75.3096ZM82.1344 76.9845C82.1275 77.9867 82.8964 78.7898 83.8917 78.8104C84.8527 78.831 85.697 78.0141 85.7176 77.0325C85.7382 76.0509 84.9351 75.2409 83.9398 75.2341C82.917 75.2341 82.1413 75.9754 82.1344 76.9914V76.9845Z" fill="#737373"/>
<path d="M45.2175 64.0176C50.915 64.0176 55.4181 68.5962 55.4181 74.3829C55.4181 79.9156 50.7983 84.4736 45.1901 84.4805C39.5269 84.4873 34.9209 79.8813 34.9415 74.2319C34.9621 68.5413 39.5132 64.0108 45.2175 64.0176ZM48.1349 71.1566C48.1349 68.7198 46.1717 66.7153 43.7691 66.7085C41.2773 66.7016 39.2798 68.6511 39.2729 71.1086C39.2592 73.5386 41.243 75.543 43.6868 75.5704C46.1099 75.5979 48.1349 73.5866 48.1418 71.1566H48.1349ZM45.1489 78.481C45.1489 80.2589 46.5424 81.6729 48.3134 81.6935C50.0707 81.7141 51.5397 80.252 51.5397 78.4878C51.5397 76.7305 50.1119 75.3165 48.3408 75.3165C46.5561 75.3165 45.1557 76.7099 45.1557 78.4878L45.1489 78.481ZM39.4995 75.2272C38.4904 75.2272 37.6941 76.0029 37.6941 76.9983C37.6941 77.973 38.5178 78.8036 39.4857 78.8105C40.4742 78.8105 41.2773 78.0073 41.2773 77.012C41.2773 75.9892 40.5223 75.2272 39.4995 75.2272Z" fill="#737373"/>
<path d="M56.283 83.4166C56.3928 82.5105 56.7978 81.5563 57.3813 80.6708C59.4543 77.5475 63.573 77.5612 65.6254 80.7051C66.1334 81.4877 66.4972 82.332 66.6757 83.2518C66.8473 84.1579 66.2982 84.9748 65.3921 85.167C64.5409 85.3523 63.7515 84.7826 63.4769 83.9177C63.2847 83.3136 63.0307 82.689 62.6531 82.1878C62.0353 81.3778 60.9988 81.419 60.3192 82.181C59.8662 82.689 59.6465 83.3067 59.4886 83.9589C59.2827 84.7757 58.5345 85.2906 57.7176 85.1945C56.9008 85.0984 56.2898 84.4119 56.2898 83.4166H56.283Z" fill="#737373"/>
<path d="M49.803 62.6173C47.8673 62.5761 46.1923 61.9995 44.7439 60.7913C44.0438 60.2079 43.9408 59.2262 44.49 58.5329C45.0597 57.819 46.0756 57.6749 46.7758 58.2721C48.6979 59.9127 51.5946 59.6793 53.2421 57.7504C53.853 57.0296 54.8758 57.009 55.5348 57.62C56.2281 58.2584 56.2693 59.2262 55.6241 59.9539C54.059 61.718 52.082 62.5761 49.803 62.631V62.6173Z" fill="#737373"/>
<path d="M61.4725 71.7675C62.2345 71.7675 62.9896 71.7538 63.7515 71.7812C63.93 71.7812 64.1497 71.8842 64.2732 72.0146C64.9734 72.7697 64.9871 73.8337 64.2869 74.6025C63.7858 75.1517 63.2573 75.6802 62.7013 76.1813C61.9325 76.8746 60.8204 76.8197 60.0791 76.0921C59.5985 75.6185 59.118 75.1379 58.6444 74.6574C57.9305 73.9229 57.903 72.7835 58.5963 72.0352C58.7268 71.8979 58.9602 71.7881 59.1524 71.7812C59.9212 71.7538 60.6969 71.7675 61.4725 71.7675Z" fill="#737373"/>
<path d="M60.8273 60.3246C60.8273 60.5991 60.8616 60.8806 60.8273 61.1483C60.7106 61.924 59.9761 62.4937 59.1661 62.4594C58.363 62.432 57.6765 61.8004 57.6285 61.011C57.601 60.558 57.5941 60.098 57.6285 59.645C57.6834 58.7938 58.4247 58.1417 59.2691 58.1623C60.1477 58.1829 60.8341 58.8693 60.8616 59.7411C60.8616 59.9333 60.8616 60.1255 60.8616 60.3177H60.841L60.8273 60.3246Z" fill="#737373"/>
<path d="M62.056 60.2902C62.056 60.1255 62.056 59.9607 62.056 59.796C62.0904 58.8899 62.7493 58.2103 63.6211 58.1828C64.5204 58.1554 65.2411 58.7938 65.3029 59.7136C65.3304 60.1255 65.3304 60.5442 65.3029 60.9561C65.2343 61.8622 64.4998 62.5006 63.5937 62.4662C62.7425 62.4319 62.0904 61.7661 62.056 60.8668C62.0492 60.6746 62.056 60.4824 62.056 60.2834V60.2902Z" fill="#737373"/>
</g>
<defs>
<clipPath id="clip0_1492_28420">
<rect width="121.789" height="112" fill="white" transform="translate(0.605713)"/>
</clipPath>
</defs>
</svg>
