<svg width="80" height="80" viewBox="0 0 80 80" fill="none" xmlns="http://www.w3.org/2000/svg">
  <path d="M40 18.0702L15 61.9764H65L40 18.0702Z" fill="#F8A4A7"/>
  <path d="M65 61.9764H40V18.0702L65 61.9764Z" fill="#F8A4A7"/>
  <path d="M67.0376 60.8171L42.0376 16.9109C41.1407 15.3354 38.8613 15.3321 37.9626 16.9109L12.9626 60.8171C12.0784 62.3712 13.197 64.3202 15.0001 64.3202H65.0001C66.791 64.3202 67.9282 62.3823 67.0376 60.8171ZM19.0313 59.6327L40.0001 22.8062L60.9688 59.6327H19.0313Z" fill="#ED1C24"/>
  <path d="M65 64.3202H40V59.6327H60.9688L40 22.8061V15.7264C40.8422 15.7264 41.6203 16.178 42.0375 16.9108L67.0375 60.8171C67.9217 62.3711 66.8031 64.3202 65 64.3202Z" fill="#ED1C24"/>
  <path d="M42.3438 34.3202V46.8202C42.3438 48.1139 41.2938 49.1639 40 49.1639C38.7063 49.1639 37.6562 48.1139 37.6562 46.8202V34.3202C37.6562 33.0264 38.7063 31.9764 40 31.9764C41.2938 31.9764 42.3438 33.0264 42.3438 34.3202Z" fill="#FCFCFE"/>
  <path d="M42.3438 34.3202V46.8202C42.3438 48.1139 41.2937 49.1639 40 49.1639V31.9764C41.2937 31.9764 42.3438 33.0264 42.3438 34.3202Z" fill="#FCFCFE"/>
  <path d="M40 56.6639C41.2944 56.6639 42.3438 55.6146 42.3438 54.3202C42.3438 53.0258 41.2944 51.9764 40 51.9764C38.7056 51.9764 37.6562 53.0258 37.6562 54.3202C37.6562 55.6146 38.7056 56.6639 40 56.6639Z" fill="#FCFCFE"/>
  <path d="M42.3313 54.0889C42.4702 55.4514 41.3961 56.6639 40 56.6639V51.9764C41.2123 51.9764 42.2339 52.9205 42.3313 54.0889Z" fill="#FCFCFE"/>
  </svg>
  