<svg width="51" height="17" viewBox="0 0 51 17" fill="none" xmlns="http://www.w3.org/2000/svg">
<path d="M19.5158 0.781368L13.0311 16.2552H8.79855L5.60966 3.90746C5.41334 3.14599 5.24557 2.86888 4.6569 2.54552C3.69263 2.0242 2.1065 1.53519 0.706055 1.23061L0.804069 0.781464H7.61368C8.48216 0.781464 9.26298 1.36074 9.4593 2.35936L11.1455 11.3153L15.3102 0.781464H19.5158V0.781368ZM36.0946 11.2009C36.1133 7.1191 30.4466 6.89694 30.4873 5.07086C30.4984 4.51345 31.0267 3.92362 32.1837 3.77472C32.7582 3.69828 34.3393 3.64226 36.1313 4.46497L36.8337 1.18513C35.8695 0.835163 34.6301 0.5 33.0898 0.5C29.1335 0.5 26.3484 2.60435 26.3249 5.61531C26.299 7.84186 28.312 9.08441 29.8304 9.82595C31.3895 10.5847 31.9108 11.0692 31.9053 11.7497C31.8951 12.7882 30.6613 13.2421 29.5105 13.2625C27.4975 13.2939 26.3299 12.7186 25.3975 12.2843L24.6728 15.6769C25.6068 16.1057 27.336 16.478 29.1256 16.5C33.3305 16.4998 36.0813 14.4179 36.0946 11.2009ZM46.5422 16.2553H50.2453L47.0141 0.781464H43.5956C42.8274 0.781464 42.1798 1.22945 41.8913 1.91574L35.8884 16.2553H40.09L40.924 13.9444H46.0601L46.5422 16.2553ZM42.0755 10.7728L44.1835 4.96259L45.3961 10.7728H42.0755ZM25.2362 0.781368L21.9242 16.2552H17.9205L21.2333 0.781368H25.2362Z" fill="#1A2ADF"/>
</svg>