<svg width="28" height="21" viewBox="0 0 28 21" fill="none" xmlns="http://www.w3.org/2000/svg">
<path d="M3.83786 0.5C2.14961 0.5 0.607044 2.02276 0.607044 3.7306C0.607044 4.67066 0.606315 8.39121 0.605585 12.0896C0.914714 12.2841 2.40327 12.7616 3.00182 12.8039C4.31268 12.8966 5.12552 12.4632 5.25133 11.3708L5.24471 7.31335H8.14444V11.2781C7.99214 13.5489 5.99973 14.0115 2.96725 13.8586C2.18236 13.819 1.11524 13.6166 0.60522 13.4838C0.60449 17.1853 0.60376 20.4999 0.60376 20.4999C0.60376 20.4999 4.38948 20.4999 5.65024 20.4999C7.02732 20.4999 8.81979 19.2132 8.81979 17.2564C8.81979 13.9727 8.81979 0.5 8.81979 0.5C8.81979 0.5 5.12552 0.5 3.83786 0.5Z" fill="currentColor"/>
<path d="M13.0966 0.5C11.4084 0.5 9.86578 2.02276 9.86578 3.7306C9.86578 4.32618 9.86552 6.03789 9.8651 8.15278C10.8781 7.36158 12.5108 6.97362 14.5884 7.13368C15.7705 7.22466 16.6451 7.38963 17.1218 7.53087V8.93439C16.5963 8.67223 15.5594 8.28172 14.6943 8.21941C12.7346 8.07817 11.7062 8.99648 11.7062 10.4808C11.7062 11.8166 12.5008 12.9597 14.6855 12.8074C15.4061 12.7572 16.6054 12.3374 17.1158 12.0946L17.1218 13.4562C16.6826 13.5947 15.3161 13.8922 14.03 13.9027C12.0939 13.9185 10.7277 13.5073 9.86416 12.8401C9.86333 16.792 9.86255 20.4999 9.86255 20.4999C9.86255 20.4999 13.6482 20.4999 14.909 20.4999C16.2861 20.4999 18.0786 19.2132 18.0786 17.2564C18.0786 13.9727 18.0786 0.5 18.0786 0.5C18.0786 0.5 14.3843 0.5 13.0966 0.5Z" fill="currentColor"/>
<path d="M22.6731 10.9064C22.1204 10.9115 20.915 10.9008 20.6969 10.906L20.6936 12.6731L22.6698 12.6796C23.0539 12.6796 23.5371 12.3506 23.5371 11.7774C23.5371 11.2703 23.1201 10.9022 22.6731 10.9064Z" fill="currentColor"/>
<path d="M23.297 9.13296C23.297 8.62586 22.9158 8.28378 22.5108 8.29322C21.9415 8.30646 20.9147 8.27914 20.6902 8.29906L20.6836 9.90779L22.5506 9.92103C22.8611 9.91472 23.297 9.63015 23.297 9.13296Z" fill="currentColor"/>
<path d="M22.3122 0.500053C20.624 0.500053 19.0814 2.02281 19.0814 3.73066C19.0814 4.24234 19.0811 5.57865 19.0808 7.28598H23.8779C24.8324 7.28598 25.9566 7.69427 25.9566 8.85493C25.9566 9.47736 25.6253 10.1824 24.4308 10.4108V10.4373C25.1281 10.4373 26.3375 10.8456 26.3375 12.077C26.3375 13.3481 25.031 13.7011 24.3314 13.7011L19.0796 13.7064C19.0789 17.3171 19.0781 20.5 19.0781 20.5C19.0781 20.5 22.8638 20.5 24.1246 20.5C25.5017 20.5 27.2942 19.2132 27.2942 17.2564C27.2942 13.9727 27.2942 0.5 27.2942 0.5C27.2942 0.5 23.5998 0.500053 22.3122 0.500053Z" fill="currentColor"/>
<defs>
<linearGradient id="paint0_linear_1179_5106" x1="0.60376" y1="10.5" x2="8.81974" y2="10.5" gradientUnits="userSpaceOnUse">
<stop stop-color="#2B327B"/>
<stop offset="1" stop-color="#0078C0"/>
</linearGradient>
<linearGradient id="paint1_linear_1179_5106" x1="9.86253" y1="10.5" x2="18.0785" y2="10.5" gradientUnits="userSpaceOnUse">
<stop stop-color="#872D34"/>
<stop offset="1" stop-color="#FF1146"/>
</linearGradient>
<linearGradient id="paint2_linear_1179_5106" x1="20.6937" y1="11.7921" x2="23.5371" y2="11.7921" gradientUnits="userSpaceOnUse">
<stop stop-color="#008144"/>
<stop offset="1" stop-color="#00BB36"/>
</linearGradient>
<linearGradient id="paint3_linear_1179_5106" x1="20.6836" y1="9.10627" x2="23.297" y2="9.10627" gradientUnits="userSpaceOnUse">
<stop stop-color="#008144"/>
<stop offset="1" stop-color="#00BB36"/>
</linearGradient>
<linearGradient id="paint4_linear_1179_5106" x1="19.0781" y1="10.5" x2="27.2941" y2="10.5" gradientUnits="userSpaceOnUse">
<stop stop-color="#008144"/>
<stop offset="1" stop-color="#00BB36"/>
</linearGradient>
</defs>
</svg>
