<svg width="33" height="20" viewBox="0 0 33 20" fill="none" xmlns="http://www.w3.org/2000/svg">
  <!-- <path d="M20.7998 2.13794H12.0498V17.8619H20.7998V2.13794Z" fill="currentColor"/> -->
  <path d="M12.6054 10C12.604 8.48567 12.9472 6.99086 13.6089 5.62876C14.2706 4.26665 15.2336 3.07294 16.4248 2.138C14.9496 0.978459 13.1779 0.257355 11.3123 0.0571128C9.44663 -0.14313 7.56228 0.185562 5.8746 1.00563C4.18692 1.8257 2.76401 3.10406 1.76852 4.69459C0.773027 6.28511 0.245117 8.12363 0.245117 10C0.245117 11.8764 0.773027 13.7149 1.76852 15.3054C2.76401 16.8959 4.18692 18.1743 5.8746 18.9944C7.56228 19.8144 9.44663 20.1431 11.3123 19.9429C13.1779 19.7426 14.9496 19.0215 16.4248 17.862C15.2336 16.927 14.2707 15.7333 13.6089 14.3712C12.9472 13.0091 12.604 11.5143 12.6054 10Z" fill="currentColor"/>
  <path d="M32.604 10C32.6041 11.8763 32.0762 13.7149 31.0808 15.3054C30.0854 16.8959 28.6625 18.1743 26.9749 18.9943C25.2872 19.8144 23.4029 20.1431 21.5373 19.9429C19.6716 19.7426 17.9 19.0215 16.4248 17.862C17.615 16.9261 18.5772 15.7322 19.2388 14.3703C19.9004 13.0084 20.2442 11.5141 20.2442 10C20.2442 8.4859 19.9004 6.99157 19.2388 5.62968C18.5772 4.26779 17.615 3.07389 16.4248 2.138C17.9 0.978454 19.6716 0.25735 21.5373 0.0571102C23.4029 -0.14313 25.2872 0.185576 26.9749 1.00566C28.6625 1.82574 30.0854 3.10409 31.0808 4.69462C32.0762 6.28514 32.6041 8.12365 32.604 10Z" fill="currentColor"/>
  <path d="M31.65 16.1965V15.8746H31.7798V15.809H31.4492V15.8746H31.5791V16.1965H31.65ZM32.2918 16.1965V15.8083H32.1905L32.0739 16.0753L31.9573 15.8083H31.8559V16.1965H31.9275V15.9037L32.0368 16.1561H32.111L32.2203 15.9031V16.1965H32.2918Z" fill="currentColor"/>
</svg>
  