<svg width="24" height="25" viewBox="0 0 24 25" fill="none" xmlns="http://www.w3.org/2000/svg">
  <g clip-path="url(#clip0_1038_45781)">
  <rect y="0.187012" width="24" height="24" rx="8" fill="#D9D9D9"/>
  <path d="M21.4286 0.187012H2.57143C1.88944 0.187012 1.23539 0.457929 0.753154 0.940166C0.270918 1.4224 0 2.07645 0 2.75844L0 21.6156C0 22.2976 0.270918 22.9516 0.753154 23.4339C1.23539 23.9161 1.88944 24.187 2.57143 24.187H9.92411V16.0275H6.54911V12.187H9.92411V9.25987C9.92411 5.9304 11.9063 4.0913 14.9421 4.0913C16.3961 4.0913 17.9164 4.35058 17.9164 4.35058V7.61844H16.2413C14.5907 7.61844 14.0759 8.64273 14.0759 9.69326V12.187H17.7605L17.1712 16.0275H14.0759V24.187H21.4286C22.1106 24.187 22.7646 23.9161 23.2468 23.4339C23.7291 22.9516 24 22.2976 24 21.6156V2.75844C24 2.07645 23.7291 1.4224 23.2468 0.940166C22.7646 0.457929 22.1106 0.187012 21.4286 0.187012Z" fill="#1877F2"/>
  </g>
  <defs>
  <clipPath id="clip0_1038_45781">
  <rect width="24" height="24" fill="white" transform="translate(0 0.187012)"/>
  </clipPath>
  </defs>
  </svg>
  