<svg width="24" height="25" viewBox="0 0 24 25" fill="none" xmlns="http://www.w3.org/2000/svg">
  <g clip-path="url(#clip0_1038_45778)">
  <circle cx="12" cy="12.187" r="10" fill="#D9D9D9"/>
  <path d="M14.5781 9.41202V13.223C14.5781 13.3214 14.5031 13.3964 14.4047 13.3964H13.7953C13.7344 13.3964 13.6828 13.3636 13.6547 13.3261L11.9063 10.9683V13.2276C11.9063 13.3261 11.8313 13.4011 11.7328 13.4011H11.1234C11.025 13.4011 10.95 13.3261 10.95 13.2276V9.41671C10.95 9.31827 11.025 9.24327 11.1234 9.24327H11.7281C11.7797 9.24327 11.8406 9.2714 11.8688 9.31827L13.6172 11.6761V9.41671C13.6172 9.31827 13.6922 9.24327 13.7906 9.24327H14.4C14.4984 9.23858 14.5781 9.31827 14.5781 9.40733V9.41202ZM10.1859 9.23858H9.57657C9.47813 9.23858 9.40313 9.31358 9.40313 9.41202V13.223C9.40313 13.3214 9.47813 13.3964 9.57657 13.3964H10.1859C10.2844 13.3964 10.3594 13.3214 10.3594 13.223V9.41202C10.3594 9.32296 10.2844 9.23858 10.1859 9.23858ZM8.71407 12.4308H7.04532V9.41202C7.04532 9.31358 6.97032 9.23858 6.87188 9.23858H6.26251C6.16407 9.23858 6.08907 9.31358 6.08907 9.41202V13.223C6.08907 13.2698 6.10313 13.3073 6.13595 13.3401C6.16876 13.3683 6.20626 13.387 6.25313 13.387H8.70001C8.79845 13.387 8.87345 13.312 8.87345 13.2136V12.6042C8.87345 12.5151 8.79845 12.4308 8.70938 12.4308H8.71407ZM17.7938 9.23858H15.3422C15.2531 9.23858 15.1688 9.31358 15.1688 9.41202V13.223C15.1688 13.312 15.2438 13.3964 15.3422 13.3964H17.7891C17.8875 13.3964 17.9625 13.3214 17.9625 13.223V12.6089C17.9625 12.5105 17.8875 12.4355 17.7891 12.4355H16.125V11.798H17.7891C17.8875 11.798 17.9625 11.723 17.9625 11.6245V11.0105C17.9625 10.912 17.8875 10.837 17.7891 10.837H16.125V10.1948H17.7891C17.8875 10.1948 17.9625 10.1198 17.9625 10.0214V9.41202C17.9578 9.32296 17.8828 9.23858 17.7891 9.23858H17.7938ZM24 4.56515V19.8464C23.9953 22.2464 22.0266 24.1917 19.6219 24.187H4.34063C1.94063 24.1823 -0.00467905 22.2089 8.45362e-06 19.8089V4.52765C0.00469595 2.12765 1.97813 0.182333 4.37813 0.18702H19.6594C22.0594 0.191708 24.0047 2.16046 24 4.56515ZM20.7 11.1323C20.7 7.22296 16.7766 4.04015 11.9625 4.04015C7.14845 4.04015 3.22501 7.22296 3.22501 11.1323C3.22501 14.6339 6.33282 17.573 10.5328 18.1308C11.5547 18.3511 11.4375 18.7261 11.2078 20.1042C11.1703 20.3245 11.0297 20.9667 11.9625 20.5776C12.8953 20.1886 16.9922 17.6151 18.8297 15.5058C20.0953 14.1136 20.7 12.7026 20.7 11.1417V11.1323Z" fill="#00B900"/>
  </g>
  <defs>
  <clipPath id="clip0_1038_45778">
  <rect width="24" height="24" fill="white" transform="translate(0 0.187012)"/>
  </clipPath>
  </defs>
  </svg>
  